<?xml version="1.0" encoding="utf-8"?>
<!-- Generator: Adobe Illustrator 25.0.1, SVG Export Plug-In . SVG Version: 6.00 Build 0)  -->
<svg version="1.0" id="Слой_1" xmlns="http://www.w3.org/2000/svg" xmlns:xlink="http://www.w3.org/1999/xlink" x="0px" y="0px"
	 viewBox="0 0 2045.3 1419.1" style="enable-background:new 0 0 2045.3 1419.1;" xml:space="preserve">
<style type="text/css">
	.st0{fill:#5799E1;}
	.st1{fill:#528FD7;}
	.st2{fill:#F9F9F9;}
	.st3{fill:#E4E4E4;}
	.st4{fill:url(#SVGID_1_);}
	.st5{fill:url(#SVGID_2_);}
	.st6{fill:url(#SVGID_3_);}
	.st7{fill:url(#SVGID_4_);}
	.st8{fill:url(#SVGID_5_);}
</style>
<g>
	<g>
		<path class="st0" d="M1391,619.6c0,12.6-0.6,25-1.9,37.2c-18.7,185.3-175.6,329.9-366.4,329.9c-7,0-13.9-0.2-20.8-0.6
			c-193.7-10.7-347.5-170.7-347.5-366.5c0-202.8,164.9-367.1,368.3-367.1S1391,416.8,1391,619.6z"/>
		<path class="st1" d="M1389.1,656.8c-18.7,185.3-175.6,329.9-366.4,329.9c-7,0-13.9-0.2-20.8-0.6l-181-153.8l70.8-69.7l7-297.6
			l111.4-54.2l208.4,90.3l168,150.3L1389.1,656.8z"/>
	</g>
	<g>
		<path class="st2" d="M1203,582.9H839.9c-1.7,0-3-1.4-3-3v-31.5h368.5v32.2C1205.4,581.8,1204.3,582.9,1203,582.9z"/>
		<path class="st3" d="M1022.7,582.9H871.4c-19.1,0-34.6-15.5-34.6-34.6l0,0h185.9V582.9z"/>
		<g>
			<path class="st2" d="M1213.6,497.7l-182.5-88.9c-5.3-2.6-11.5-2.6-16.7,0l-182.5,88.9c-7.2,3.5-11.8,10.7-11.8,18.7v31.9h202.6
				h202.7v-31.9C1225.4,508.4,1220.8,501.2,1213.6,497.7z"/>
			<path class="st3" d="M1022.7,406.9v141.5H820v-31.9c0-8,4.6-15.3,11.8-18.7l182.5-88.9C1017,407.5,1019.8,406.9,1022.7,406.9z"/>
		</g>
		<rect x="872.1" y="582.9" class="st2" width="66.1" height="167.2"/>
		<rect x="988.2" y="582.9" class="st2" width="67.1" height="167.2"/>
		<rect x="1105.8" y="582.9" class="st2" width="66.9" height="167.2"/>
		<g>
			<path class="st2" d="M1172.1,747.7H871.4c-18.9,0-34.3,15.3-34.3,34.3l0,0h369.2l0,0C1206.4,763.1,1191,747.7,1172.1,747.7z"/>
			<path class="st3" d="M1021.5,747.7h-150c-18.9,0-34.3,15.3-34.3,34.3l0,0h184.3V747.7z"/>
		</g>
		<g>
			<path class="st2" d="M1220.2,782H822.7c-1,0-1.8,0.8-1.8,1.8v48.5h401.2v-48.5C1222.1,782.8,1221.2,782,1220.2,782z"/>
			<path class="st3" d="M1021.5,782h-199c-0.9,0-1.6,0.7-1.6,1.6v48.8h200.6V782z"/>
		</g>
		
			<linearGradient id="SVGID_1_" gradientUnits="userSpaceOnUse" x1="929.2505" y1="884.8145" x2="930.0856" y2="858.7319" gradientTransform="matrix(1 0 0 -1 0 1419.1045)">
			<stop  offset="0.1751" style="stop-color:#E6E6E7"/>
			<stop  offset="0.7193" style="stop-color:#CDCDCD"/>
		</linearGradient>
		<rect x="836.9" y="548.4" class="st4" width="185.8" height="4.3"/>
		
			<linearGradient id="SVGID_2_" gradientUnits="userSpaceOnUse" x1="928.8057" y1="655.4529" x2="929.6368" y2="629.4952" gradientTransform="matrix(1 0 0 -1 0 1419.1045)">
			<stop  offset="0.3083" style="stop-color:#E6E6E7"/>
			<stop  offset="0.8101" style="stop-color:#CDCDCD"/>
		</linearGradient>
		<rect x="837.2" y="777.6" class="st5" width="184.3" height="4.3"/>
	</g>
	
		<linearGradient id="SVGID_3_" gradientUnits="userSpaceOnUse" x1="886.6368" y1="852.6609" x2="950.8589" y2="795.6456" gradientTransform="matrix(1 0 0 -1 0 1419.1045)">
		<stop  offset="1.675980e-02" style="stop-color:#CDCDCD"/>
		<stop  offset="0.1435" style="stop-color:#E6E6E7"/>
	</linearGradient>
	<polygon class="st6" points="872.1,582.9 938.2,637.8 938.2,582.9 	"/>
	
		<linearGradient id="SVGID_4_" gradientUnits="userSpaceOnUse" x1="1002.6369" y1="852.6609" x2="1066.859" y2="795.6456" gradientTransform="matrix(1 0 0 -1 0 1419.1045)">
		<stop  offset="9.497210e-02" style="stop-color:#CDCDCD"/>
		<stop  offset="0.2552" style="stop-color:#E6E6E7"/>
	</linearGradient>
	<polygon class="st7" points="988.1,582.9 1054.2,637.8 1054.2,582.9 	"/>
	
		<linearGradient id="SVGID_5_" gradientUnits="userSpaceOnUse" x1="1120.7148" y1="852.6361" x2="1184.881" y2="795.6704" gradientTransform="matrix(1 0 0 -1 0 1419.1045)">
		<stop  offset="5.586590e-02" style="stop-color:#CDCDCD"/>
		<stop  offset="0.406" style="stop-color:#E6E6E7"/>
	</linearGradient>
	<polygon class="st8" points="1106.2,582.9 1172.2,637.8 1172.2,582.9 	"/>
</g>
<path d="M468.9,1038.4c-28.9,0-53.3,23.6-53.3,52.6c0,28.9,24.4,52.4,53.3,52.4c15.6,0,27.3-5.1,36.5-14.7
	c9.5-9.5,12.5-22.9,12.5-33.6c0-3.3-0.3-6.4-0.8-9h-48.3v14.5h34.2c-1,8.1-3.7,13.9-7.8,18c-5,5-12.7,10.6-26.4,10.6
	c-21.1,0-37.7-17-37.7-38.1c0-21.1,16.6-38.3,37.7-38.3c11.4,0,19.6,4.6,25.8,10.4l10.2-10.2
	C496.3,1044.6,484.9,1038.4,468.9,1038.4z M746,1041.9v99.5h14.8v-99.5H746z M1149.3,1047.5c-6.1,0-11.3,2.2-15.6,6.3
	c-4.4,4.1-6.6,9-6.6,14.8c0,4.3,2.2,9.4,6.6,15.2c-4.9,3-8.7,7.1-11.5,11.9s-4.3,9.8-4.3,15c0,9.1,3.3,16.8,9.8,23.1
	c6.5,6.2,14.3,9.4,23.6,9.4c8.2,0,15.3-2.7,21.3-8.2l6.3,8.2l8.8-6.6l-8.6-11.1l10.7-17l-9.2-5.7l-8.2,13.7l-30.5-39.7
	c-2-2.6-2.9-5.3-2.9-8.2c0-3.1,1-5.5,2.9-7.2c2-1.7,4.5-2.5,7.4-2.5c4.5,0,8,3.2,10.4,9.6l10.2-5.5c-1.4-4.4-4.1-8-7.6-10.9
	C1158.6,1049.1,1154.4,1047.5,1149.3,1047.5L1149.3,1047.5z M1269.6,1047.5c-13.5,0-24.9,4.5-34,13.7c-9.1,9.1-13.7,20.5-13.7,34.2
	c0,13.7,4.5,25.1,13.7,34.2c9.1,9.1,20.5,13.7,34,13.7c7.4,0,14.2-1.4,20.5-4.3c6.3-2.9,11.6-7.1,15.8-12.1l-8.2-8.2
	c-7.8,8.9-17.1,13.5-28.1,13.5c-10,0-18.5-3.4-25.4-10.2c-6.9-6.7-10.4-15.6-10.4-26.6c0-10.9,3.5-19.6,10.4-26.4
	c6.9-6.7,15.4-10.2,25.4-10.2c10.8,0,19.2,3.8,25.4,11.5l8.2-7.8C1294.6,1052.6,1283.4,1047.5,1269.6,1047.5L1269.6,1047.5z
	 M890,1049.7l-34.6,91.6h13.1l9-24.8H916l8.8,24.8h13.1l-34.6-91.6C903.3,1049.7,890,1049.7,890,1049.7z M1385.1,1049.7v91.6h11.7
	v-91.6H1385.1z M1000.2,1059.3v19.3h-10.9v10.7h10.9v32.8c0,6.4,1.8,11.4,5.3,14.8c3.5,3.5,8.5,5.3,15,5.3c3.8,0,6.8-0.7,9.4-1.8
	l-4.1-10c-1.5,0.7-3.1,1-5.3,1c-5.6,0-8.6-3.3-8.6-10.2v-32h15.4v-10.7h-15.4v-19.3H1000.2L1000.2,1059.3z M1418.7,1059.3v19.3
	h-10.9v10.7h10.9v32.8c0,6.4,1.8,11.4,5.3,14.8c3.5,3.5,8.5,5.3,15,5.3c3.8,0,6.8-0.7,9.4-1.8l-4.1-10c-1.5,0.7-3.1,1-5.3,1
	c-5.6,0-8.4-3.3-8.4-10.2v-32h15.2v-10.7h-15.2v-19.3H1418.7z M896.4,1064.2h0.4l15,41.2h-30.5
	C881.4,1105.4,896.4,1064.2,896.4,1064.2z M556.8,1075.7c-18.7,0-33.8,14.2-33.8,33.8c0,19.5,15.1,33.8,33.8,33.8
	c18.7,0,34-14.3,34-33.8C590.8,1089.9,575.5,1075.7,556.8,1075.7z M630.9,1075.7c-18.7,0-34,14.2-34,33.8c0,19.5,15.3,33.8,34,33.8
	c18.7,0,34-14.3,34-33.8C664.9,1089.9,649.6,1075.7,630.9,1075.7z M703.4,1075.7c-16.9,0-32.4,14.9-32.4,34
	c0,18.9,15.5,33.6,32.4,33.6c8.1,0,14.5-3.5,17.8-7.6h0.6v4.9c0,12.9-6.8,19.7-18,19.7c-9.1,0-14.9-6.4-17.2-11.9l-12.9,5.3
	c3.7,9,13.7,20.1,30.1,20.1c17.4,0,32-10.4,32-35.4v-60.6h-14.1v5.5h-0.6C717.8,1079.3,711.4,1075.7,703.4,1075.7L703.4,1075.7z
	 M799.9,1075.7c-17.4,0-31.8,13.7-31.8,33.8c0,18.9,14.4,33.8,33.6,33.8c15.5,0,24.4-9.3,28.1-14.8l-11.5-7.8
	c-3.8,5.6-9.1,9.4-16.6,9.4c-7.6,0-13-3.4-16.4-10.2l45.1-18.8l-1.6-3.9C826,1089.6,817.4,1075.7,799.9,1075.7L799.9,1075.7z
	 M1060.2,1076.5c-6.7,0-12.7,1.8-17.6,5.3c-4.9,3.5-7.2,7.9-7.2,13.5c0,4.9,1.7,8.7,5.3,11.5c3.6,2.9,7.3,4.8,11.3,5.9l12.7,3.1
	c5.7,1.5,8.6,4.1,8.6,8.2c0,2.6-1.2,4.8-3.5,6.4c-2.3,1.6-5.3,2.5-9,2.5c-8,0-13.7-4.1-17-11.9l-10.6,4.5c2.1,5.1,5.6,9.3,10.2,12.7
	c4.6,3.4,10.2,5.1,17.2,5.1c7.3,0,13.2-1.9,17.8-5.7c4.6-3.8,7-8.4,7-14.1c0-4.2-1.5-7.8-4.3-11.1c-2.8-3.3-7.2-5.7-13.1-7
	l-12.3-2.9c-5.5-1.3-8.4-3.8-8.4-7.4c0-2.5,1.3-4.4,3.7-5.9c2.4-1.4,5.3-2.1,8.8-2.1c7.3,0,12,2.9,14.3,8.4l10.4-4.3
	c-1.9-4.7-5-8.2-9.4-10.7C1070.7,1077.9,1065.7,1076.5,1060.2,1076.5L1060.2,1076.5z M1593.8,1076.5c-9,0-16.3,3.4-22.1,10
	c-5.8,6.6-8.6,14.3-8.6,23.4c0,9.6,2.9,17.7,8.8,24c5.9,6.3,13.6,9.4,23.1,9.4c6.8,0,12.7-1.6,17.4-4.9c4.7-3.3,8.1-7.4,10.2-12.3
	l-10.6-4.3c-3,7.2-8.7,10.7-17.2,10.7c-5.2,0-9.8-1.8-13.7-5.5c-3.9-3.7-5.9-8.7-6.3-15h49.6v-2.1c0-10.2-2.8-18.2-8.4-24.2
	C1610.4,1079.6,1603.1,1076.5,1593.8,1076.5L1593.8,1076.5z M976.3,1077.1c-4.4,0-8.6,1-12.3,3.1c-3.7,2.1-6.3,4.9-7.6,8.6H956
	v-10.2h-11.3v62.7h11.7v-34.4c0-5.7,1.8-10.2,5.5-13.5c3.6-3.3,8.2-4.9,13.9-4.9c1.5,0,3.1,0,4.7,0.2v-11.5
	C978.9,1077.1,977.6,1077.1,976.3,1077.1L976.3,1077.1z M1553.9,1077.1c-3.5,0-7,1.1-10.7,3.3c-3.7,2.2-6.2,5-7.4,8.4h-0.6v-10.2
	H1524v62.7h11.7v-34.4c0-5.5,1.6-9.9,4.9-13.3c3.3-3.4,7.1-4.9,11.3-4.9c2.6,0,4.7,0.2,6.3,0.8l4.5-10.9
	C1560.3,1077.6,1557.4,1077.1,1553.9,1077.1L1553.9,1077.1z M1315.1,1078.6v38.3c0,8,2.2,14.6,6.3,19.3c4.1,4.8,9.9,7,17.8,7
	c4.1,0,8.1-1,11.7-3.1c3.7-2.1,6.2-4.6,8-7.6h0.6v8.8h11.3v-62.7h-11.9v34.6c0,5.1-1.4,9.6-4.5,13.5c-3.1,3.9-7.1,5.9-11.9,5.9
	c-10.3,0-15.4-5.9-15.4-17.6v-36.3H1315.1L1315.1,1078.6z M1455.4,1078.6v38.3c0,8,2,14.6,6.1,19.3c4.1,4.8,9.9,7,17.8,7
	c4.1,0,8.1-1,11.7-3.1c3.7-2.1,6.4-4.6,8.2-7.6h0.4v8.8h11.3v-62.7h-11.7v34.6c0,5.1-1.6,9.6-4.7,13.5c-3.1,3.9-7.1,5.9-11.9,5.9
	c-10.3,0-15.4-5.9-15.4-17.6v-36.3C1467.1,1078.6,1455.4,1078.6,1455.4,1078.6z M1593.6,1087.2c6,0,10.5,1.6,13.5,4.9
	c3,3.2,4.6,6.8,4.9,10.4h-36.3c1.2-4.6,3.4-8.4,6.6-11.1C1585.4,1088.6,1589.2,1087.2,1593.6,1087.2z M800.5,1088.8
	c5.9,0,10.8,3,12.5,7.2l-30.3,12.5C782.3,1095.4,792.9,1088.8,800.5,1088.8z M556.8,1089c10.2,0,19.1,8.4,19.1,20.5
	c0,12-8.9,20.5-19.1,20.5c-10.2,0-19-8.5-19-20.5C537.9,1097.3,546.6,1089,556.8,1089L556.8,1089z M630.9,1089
	c10.2,0,19.1,8.4,19.1,20.5c0,12-8.9,20.5-19.1,20.5c-10.2,0-19.1-8.5-19.1-20.5C611.7,1097.3,620.7,1089,630.9,1089L630.9,1089z
	 M704.7,1089.2c10.1,0,18,8.6,18,20.5c0,11.8-7.9,20.3-18,20.3c-10.2,0-18.8-8.5-18.8-20.3C686,1097.8,694.5,1089.2,704.7,1089.2z
	 M1140.1,1092.5l26,34c-3.8,4.1-8.9,6.1-14.8,6.1c-6.3,0-11.6-2-16-6.1c-4.4-4.1-6.6-9.4-6.6-15.6c0-3.7,1-7,3.1-10.4
	C1133.8,1097.2,1136.6,1094.4,1140.1,1092.5L1140.1,1092.5z"/>
</svg>
