<?xml version="1.0" encoding="utf-8"?>
<!-- Generator: Adobe Illustrator 24.1.1, SVG Export Plug-In . SVG Version: 6.00 Build 0)  -->
<svg version="1.1" id="Content_1_" xmlns="http://www.w3.org/2000/svg" xmlns:xlink="http://www.w3.org/1999/xlink" x="0px" y="0px"
	 viewBox="0 0 500 500" style="enable-background:new 0 0 500 500;" xml:space="preserve">
<style type="text/css">
	.st0{fill:#34A853;}
	.st1{fill:url(#SVGID_1_);}
	.st2{fill:#EA4335;}
	.st3{fill:#FBBC04;}
</style>
<g id="logo_x5F_GoogleOne_x5F_clr">
	<g id="Content">
		<path class="st0" d="M374.1,391.96v52.43c0,30.66-24.8,55.56-55.36,55.56s-55.36-24.9-55.36-55.56V307.12L374.1,391.96z"/>
		
			<linearGradient id="SVGID_1_" gradientUnits="userSpaceOnUse" x1="1550.9692" y1="1940.347" x2="1550.9692" y2="583.8676" gradientTransform="matrix(0.25 0 0 0.25 -69 -90.5)">
			<stop  offset="0" style="stop-color:#1A73E8"/>
			<stop  offset="1" style="stop-color:#4285F4"/>
		</linearGradient>
		<path class="st1" d="M374.1,55.6v336.36l-110.72-84.85V173.35l90.61-74.89C367.27,87.43,374.1,71.62,374.1,55.6z"/>
		<path class="st2" d="M374.1,53.65c0,0.59,0,1.27,0,1.86c0,16.01-6.83,31.83-20.11,42.86l-90.61,74.89V55.6
			c0-18.16,8.69-34.37,22.26-44.52c0.98-0.78,1.95-1.46,3.03-2.05c0.49-0.29,0.98-0.59,1.46-0.88c0.88-0.59,1.86-1.07,2.64-1.56
			c0.68-0.29,1.76-0.88,2.44-1.27c0.68-0.29,1.37-0.59,2.05-0.98c0.78-0.29,1.66-0.68,2.54-0.98c0.78-0.29,1.66-0.59,2.54-0.88
			c1.56-0.49,3.22-0.98,4.88-1.27c0.49-0.1,0.98-0.2,1.56-0.29c0.39-0.1,0.78-0.1,1.07-0.2c0.68-0.1,1.27-0.2,1.95-0.29
			c0.78-0.1,1.56-0.2,2.34-0.29c0.59-0.1,1.27-0.1,1.86-0.1c0.88,0,1.86-0.1,2.83-0.1l0,0c2.05,0,4,0.1,5.96,0.29
			c0.98,0.1,1.95,0.29,3.03,0.39c0.98,0.1,1.95,0.29,2.93,0.59c0.98,0.2,1.95,0.49,2.93,0.78c0.78,0.2,1.66,0.49,2.44,0.78
			c1.56,0.49,3.12,1.07,4.59,1.76c0.78,0.29,1.46,0.68,2.25,0.98c0.98,0.49,1.86,0.98,2.83,1.46c1.37,0.78,2.64,1.56,4,2.44
			c0.1,0.1,0.29,0.2,0.39,0.29c1.37,0.98,2.73,2.05,4.1,3.12c0.68,0.59,1.27,1.07,1.95,1.66c0,0,0,0,0.1,0.1
			c0.59,0.59,1.27,1.17,1.86,1.86c0.59,0.59,1.27,1.27,1.86,1.86c1.27,1.27,2.34,2.73,3.42,4.1c0.78,0.98,1.46,1.95,2.05,3.03
			c0.29,0.49,0.59,0.98,0.88,1.46c0.59,0.88,1.07,1.86,1.56,2.64c0.29,0.68,0.88,1.76,1.27,2.44c0.29,0.68,0.59,1.37,0.88,2.05
			c0.29,0.78,0.68,1.66,0.98,2.54c0.29,0.78,0.59,1.66,0.88,2.54c0.39,1.27,0.68,2.44,0.98,3.61c0.2,0.59,0.29,1.07,0.39,1.66
			c0.2,0.78,0.29,1.56,0.49,2.34c0.1,0.59,0.2,1.27,0.29,1.86c0.1,0.78,0.2,1.56,0.29,2.34c0.1,0.59,0.1,1.27,0.1,1.86
			C374,53.06,374.1,53.36,374.1,53.65z"/>
		<path class="st3" d="M283.5,12.74c0.68-0.59,1.37-1.07,2.15-1.66c-13.47,10.15-22.16,26.26-22.16,44.52v117.75l-47.06,38.96
			C206.17,220.9,193.67,225,181.27,225c-15.91,0-31.73-6.83-42.67-20.21c-19.43-23.73-16.01-58.68,7.52-78.21L283.5,12.74z"/>
	</g>
</g>
</svg>
